<svg xmlns="http://www.w3.org/2000/svg" viewBox="0 0 400 400" role="img" aria-labelledby="title desc">
  <title id="title">Basil sprout stage</title>
  <desc id="desc">A compact basil sprout with rounded leaves and a short green stem.</desc>
  <defs>
    <linearGradient id="bg" x1="0%" y1="0%" x2="0%" y2="100%">
      <stop offset="0%" stop-color="#f7f2e5" />
      <stop offset="100%" stop-color="#e3ecdd" />
    </linearGradient>
  </defs>
  <rect width="400" height="400" fill="url(#bg)" />
  <circle cx="308" cy="82" r="34" fill="#fef6cf" />
  <ellipse cx="200" cy="306" rx="164" ry="54" fill="#c9a47b" />
  <path d="M36 304c36 16 92 24 164 24s128-8 164-24v60H36Z" fill="#805d42" />
  <path d="M200 276c0-30 4-51 12-68" fill="none" stroke="#5e8852" stroke-linecap="round" stroke-width="8" />
  <path d="M214 224c22-18 44-18 62 1-14 22-40 29-62-1Z" fill="#77a966" />
  <path d="M208 240c-20-17-43-17-61 3 16 20 42 23 61-3Z" fill="#8fba78" />
  <ellipse cx="198" cy="274" rx="9" ry="15" fill="#714d33" />
</svg>
